<svg width="102" height="24" viewBox="0 0 102 24" fill="none" xmlns="http://www.w3.org/2000/svg">
<path fill-rule="evenodd" clip-rule="evenodd" d="M69 6.4C69 4.15979 69 3.03969 69.436 2.18404C69.8195 1.43139 70.4314 0.819467 71.184 0.435974C72.0397 0 73.1598 0 75.4 0L95.6 0C97.8402 0 98.9603 0 99.816 0.435974C100.569 0.819467 101.181 1.43139 101.564 2.18404C102 3.03969 102 4.15979 102 6.4V17.6C102 19.8402 102 20.9603 101.564 21.816C101.181 22.5686 100.569 23.1805 99.816 23.564C98.9603 24 97.8402 24 95.6 24H75.4C73.1598 24 72.0397 24 71.184 23.564C70.4314 23.1805 69.8195 22.5686 69.436 21.816C69 20.9603 69 19.8402 69 17.6V6.4Z" fill="#FA2D6C"/>
<path fill-rule="evenodd" clip-rule="evenodd" d="M0 6.4C0 4.15979 0 3.03969 0.435974 2.18404C0.819467 1.43139 1.43139 0.819467 2.18404 0.435974C3.03969 0 4.15979 0 6.4 0L29.6 0C31.8402 0 32.9603 0 33.816 0.435974C34.5686 0.819467 35.1805 1.43139 35.564 2.18404C36 3.03969 36 4.15979 36 6.4V17.6C36 19.8402 36 20.9603 35.564 21.816C35.1805 22.5686 34.5686 23.1805 33.816 23.564C32.9603 24 31.8402 24 29.6 24H6.4C4.15979 24 3.03969 24 2.18404 23.564C1.43139 23.1805 0.819467 22.5686 0.435974 21.816C0 20.9603 0 19.8402 0 17.6V6.4Z" fill="#20D5EC"/>
<path d="M3 4C3 1.79086 4.79086 0 7 0H95C97.2091 0 99 1.79086 99 4V20C99 22.2091 97.2091 24 95 24H7C4.79086 24 3 22.2091 3 20V4Z" fill="black"/>
<path d="M10.1703 17.75L13.0543 7.88H16.6523L19.5503 17.75H17.2823L16.4563 14.754H13.2503L12.4243 17.75H10.1703ZM13.7403 12.99H15.9663L14.8603 8.944L13.7403 12.99ZM23.6892 17.918C21.5332 17.918 19.9792 16.434 19.9792 14.096C19.9792 11.744 21.5332 10.274 23.6892 10.274C25.5372 10.274 26.6432 11.114 27.1052 12.528L25.1872 13.13C24.8932 12.276 24.3752 11.996 23.7032 11.996C22.8072 11.996 22.1072 12.71 22.1072 14.096C22.1072 15.482 22.8072 16.182 23.7032 16.182C24.3752 16.182 24.8792 15.916 25.1872 15.048L27.1052 15.664C26.6432 17.078 25.5372 17.918 23.6892 17.918ZM31.3728 17.918C29.2168 17.918 27.6628 16.434 27.6628 14.096C27.6628 11.744 29.2168 10.274 31.3728 10.274C33.2208 10.274 34.3268 11.114 34.7888 12.528L32.8708 13.13C32.5768 12.276 32.0588 11.996 31.3868 11.996C30.4908 11.996 29.7908 12.71 29.7908 14.096C29.7908 15.482 30.4908 16.182 31.3868 16.182C32.0588 16.182 32.5628 15.916 32.8708 15.048L34.7888 15.664C34.3268 17.078 33.2208 17.918 31.3728 17.918ZM39.0984 17.918C36.8024 17.918 35.3464 16.378 35.3464 14.026C35.3464 11.814 36.8724 10.274 39.0284 10.274C41.1284 10.274 42.5144 11.646 42.5144 13.802C42.5144 14.068 42.5004 14.418 42.4584 14.614H37.3624C37.4324 15.636 38.0204 16.28 39.1404 16.28C39.8964 16.28 40.4564 15.972 40.7924 15.314L42.3744 16.084C41.8004 17.274 40.5684 17.918 39.0984 17.918ZM37.3764 13.284H40.5124C40.4424 12.304 39.8824 11.8 38.9584 11.8C38.0904 11.8 37.4744 12.29 37.3764 13.284ZM46.2164 17.918C44.5504 17.918 43.3884 17.232 43.0944 15.762L45.0404 15.342C45.2084 16.112 45.6284 16.476 46.3144 16.476C46.9304 16.476 47.2664 16.224 47.2664 15.734C47.2664 15.342 47.0984 15.076 46.5384 14.922L45.0824 14.53C44.0884 14.264 43.4164 13.564 43.4164 12.514C43.4164 11.156 44.5504 10.274 46.3284 10.274C47.7984 10.274 48.9744 10.848 49.2684 12.094L47.3644 12.556C47.1544 11.968 46.8044 11.716 46.2444 11.716C45.7124 11.716 45.4184 11.982 45.4184 12.346C45.4184 12.696 45.6144 12.906 46.0344 13.018L47.3504 13.382C48.5964 13.704 49.2964 14.348 49.2964 15.552C49.2964 17.078 48.0224 17.918 46.2164 17.918ZM52.984 17.918C51.318 17.918 50.156 17.232 49.862 15.762L51.808 15.342C51.976 16.112 52.396 16.476 53.082 16.476C53.698 16.476 54.034 16.224 54.034 15.734C54.034 15.342 53.866 15.076 53.306 14.922L51.85 14.53C50.856 14.264 50.184 13.564 50.184 12.514C50.184 11.156 51.318 10.274 53.096 10.274C54.566 10.274 55.742 10.848 56.036 12.094L54.132 12.556C53.922 11.968 53.572 11.716 53.012 11.716C52.48 11.716 52.186 11.982 52.186 12.346C52.186 12.696 52.382 12.906 52.802 13.018L54.118 13.382C55.364 13.704 56.064 14.348 56.064 15.552C56.064 17.078 54.79 17.918 52.984 17.918ZM56.9676 17.75V10.442H59.0396V17.75H56.9676ZM56.7996 8.524C56.7996 7.866 57.3036 7.334 58.0036 7.334C58.7036 7.334 59.2216 7.866 59.2216 8.524C59.2216 9.182 58.7036 9.714 58.0036 9.714C57.3036 9.714 56.7996 9.182 56.7996 8.524ZM63.9982 16.182C64.9922 16.182 65.6922 15.454 65.6922 14.096C65.6922 12.738 64.9922 11.996 63.9982 11.996C63.0042 11.996 62.3042 12.738 62.3042 14.096C62.3042 15.454 63.0042 16.182 63.9982 16.182ZM60.3582 17.75V7.88H62.4302V11.24C62.9202 10.568 63.7182 10.274 64.5722 10.274C66.4482 10.274 67.8202 11.772 67.8202 14.11C67.8202 16.434 66.4062 17.918 64.5722 17.918C63.6202 17.918 62.7662 17.582 62.3042 16.84V17.75H60.3582ZM68.8894 17.75V10.442H70.9614V17.75H68.8894ZM68.7214 8.524C68.7214 7.866 69.2254 7.334 69.9254 7.334C70.6254 7.334 71.1434 7.866 71.1434 8.524C71.1434 9.182 70.6254 9.714 69.9254 9.714C69.2254 9.714 68.7214 9.182 68.7214 8.524ZM72.2801 17.75V7.88H74.3521V17.75H72.2801ZM75.6707 17.75V10.442H77.7427V17.75H75.6707ZM75.5027 8.524C75.5027 7.866 76.0067 7.334 76.7067 7.334C77.4067 7.334 77.9247 7.866 77.9247 8.524C77.9247 9.182 77.4067 9.714 76.7067 9.714C76.0067 9.714 75.5027 9.182 75.5027 8.524ZM82.1133 17.89C80.6433 17.89 79.8593 17.176 79.8593 15.804V12.052H78.6273V10.442H79.8593V8.86L81.9313 7.978V10.442H83.3453V12.052H81.9313V15.356C81.9313 15.874 82.1833 16.112 82.6733 16.112C82.8553 16.112 83.0513 16.084 83.2753 16V17.708C82.8693 17.834 82.5053 17.89 82.1133 17.89ZM86.102 20.55L87.026 17.666H86.242L83.792 10.442H85.906L87.642 15.944L89.322 10.442H91.436L88.216 20.55H86.102Z" fill="white"/>
</svg>
