<svg width="97" height="27" viewBox="0 0 97 27" fill="none" xmlns="http://www.w3.org/2000/svg">
<path d="M68.0081 18.6897C68.0081 15.0915 70.6588 12.2689 74.2315 12.0028C74.0481 11.9894 73.863 11.9818 73.6763 11.9818C69.8268 11.9818 66.8986 14.908 66.8986 18.6888C66.8986 22.4697 69.8268 25.3984 73.6763 25.3984C73.863 25.3984 74.0481 25.3908 74.2315 25.3773C70.6596 25.1112 68.0081 22.287 68.0081 18.6888V18.6897ZM22.6404 7.69568V6.94456C21.4947 6.86372 20.2951 6.50332 19.2402 5.80862C20.211 6.80899 21.4206 7.4178 22.6404 7.69568ZM12.2295 0.856445V17.648C12.2295 19.8483 10.6472 21.263 8.72328 21.263C8.0848 21.263 7.47912 21.114 6.95252 20.8386C7.62129 21.6916 8.67618 22.1817 9.83369 22.1817C11.7576 22.1817 13.3399 20.767 13.3399 18.565V1.77345H16.3893C16.306 1.48126 16.2379 1.17559 16.1857 0.856445H12.2303H12.2295ZM9.7277 10.6185V9.78652C9.34242 9.72253 8.95714 9.70148 8.63832 9.70148C4.29764 9.70148 0.663574 13.1826 0.663574 17.499C0.663574 20.3325 2.04401 22.7551 4.14117 24.1892C2.67997 22.74 1.77398 20.7123 1.77398 18.416C1.77398 14.1063 5.39711 10.6277 9.72854 10.6185H9.7277Z" fill="#2DCCD3"/>
<path d="M75.8957 11.9825C75.7089 11.9825 75.5238 11.9901 75.3405 12.0036C78.9106 12.2696 81.5613 15.0939 81.5613 18.6904C81.5613 22.2868 78.9106 25.1128 75.3405 25.3789C75.5238 25.3924 75.7089 25.3999 75.8957 25.3999C79.7434 25.3999 82.6717 22.4721 82.6717 18.6904C82.6717 14.9087 79.7434 11.9833 75.8957 11.9833V11.9825ZM19.2396 5.80934C18.3017 4.84518 17.5858 3.51725 17.2947 1.77333H16.3887C16.9061 3.65787 17.9711 4.97317 19.2396 5.80934ZM22.6398 10.8752C20.8783 10.8752 19.211 10.5392 17.7422 9.55063C19.4524 11.26 21.5277 11.7939 23.7502 11.7939V7.86229C23.3843 7.83787 23.01 7.78314 22.6398 7.69641V10.8752ZM6.95194 20.8385C6.48001 20.2423 6.19821 19.471 6.19821 18.5649C6.19821 16.0236 8.18601 14.6805 10.8367 14.9592V10.7026C10.4514 10.6386 10.0661 10.6175 9.74562 10.6175H9.72712V14.0397C7.07644 13.7626 5.08864 15.104 5.08864 17.6471C5.08864 19.1341 5.8491 20.2617 6.95194 20.8376V20.8385ZM16.6318 17.3709C16.6318 22.7331 12.5275 25.5742 8.65877 25.5742C6.9839 25.5742 5.42849 25.069 4.14059 24.189C5.58664 25.6231 7.57696 26.4912 9.76918 26.4912C13.6379 26.4912 17.7422 23.6501 17.7422 18.2879V9.55063C17.357 9.29043 16.9868 8.98645 16.6318 8.63194V17.3709Z" fill="#F1204A"/>
<path d="M58.9671 13.4241H54.221L50.6281 17.301V8.02902H46.6306V25.1195H50.6281V21.9576L52.2104 20.2911L54.6264 25.0976H59.2868L55.1606 17.5132L58.968 13.4224L58.9671 13.4241ZM26.751 11.7939H30.899V25.1204H35.1531V11.7939H37.9476L39.4122 8.02986H26.7518V11.7939H26.751ZM40.3745 25.1204H44.372V13.4241H40.3745V25.1204ZM42.3623 7.81598C41.0584 7.81598 40.139 8.71362 40.139 9.95229C40.139 11.191 41.0584 12.0886 42.3623 12.0886C43.6662 12.0886 44.5856 11.1699 44.5856 9.95229C44.5856 8.73467 43.6662 7.81598 42.3623 7.81598ZM92.2407 17.5149L96.048 13.4241H91.3019L87.709 17.301V8.02902H83.7115V25.1195H87.709V21.9576L89.2913 20.2911L91.7073 25.0976H96.3677L92.2415 17.5132L92.2407 17.5149ZM70.316 8.02986H57.1257V11.7939H61.2729V25.1204H65.5269V11.7939H68.8506L70.316 8.02986ZM75.3406 12.0027C75.1572 11.9892 74.9721 11.9817 74.7854 11.9817C74.5986 11.9817 74.4136 11.9892 74.2302 12.0027C70.6584 12.2688 68.0068 15.0914 68.0068 18.6895C68.0068 22.2877 70.6575 25.112 74.2302 25.378C74.4136 25.3915 74.5986 25.3991 74.7854 25.3991C74.9721 25.3991 75.1572 25.3915 75.3406 25.378C78.9107 25.112 81.5614 22.286 81.5614 18.6895C81.5614 15.0931 78.9107 12.2688 75.3406 12.0027ZM75.3406 21.6974C75.1631 21.7294 74.978 21.7445 74.7854 21.7445C74.5927 21.7445 74.4077 21.7294 74.2302 21.6974C72.8253 21.454 71.8983 20.2827 71.8983 18.6895C71.8983 17.0964 72.8253 15.9259 74.2302 15.6817C74.4077 15.6497 74.5927 15.6345 74.7854 15.6345C74.978 15.6345 75.1631 15.6497 75.3406 15.6817C76.7437 15.925 77.6708 17.0964 77.6708 18.6895C77.6708 20.2827 76.7437 21.4532 75.3406 21.6974ZM16.3889 1.77333H13.3394V18.5649C13.3394 20.7669 11.7571 22.1816 9.83324 22.1816C8.67573 22.1816 7.62084 21.6907 6.95207 20.8385C5.84923 20.2634 5.08877 19.135 5.08877 17.6479C5.08877 15.1049 7.07657 13.7635 9.72725 14.0405V10.6184C5.39582 10.6276 1.77269 14.107 1.77269 18.4159C1.77269 20.7122 2.67868 22.7399 4.13988 24.1891C5.42778 25.0682 6.98319 25.5742 8.65806 25.5742C12.5268 25.5742 16.6311 22.7331 16.6311 17.3709V8.63194C16.9861 8.98645 17.3563 9.29043 17.7415 9.55063C19.2103 10.5392 20.8776 10.8752 22.6391 10.8752V7.69641C21.4193 7.41937 20.2088 6.80971 19.2389 5.80934C17.9703 4.97317 16.9054 3.65871 16.388 1.77333H16.3889Z" fill="black"/>
</svg>
